<?xml version="1.0" encoding="UTF-8"?>
<!DOCTYPE svg PUBLIC "-//W3C//DTD SVG 1.1//EN" "http://www.w3.org/Graphics/SVG/1.1/DTD/svg11.dtd">
<!-- Creator: CorelDRAW -->
<svg xmlns="http://www.w3.org/2000/svg" xml:space="preserve" width="1.89685in" height="0.472882in" style="shape-rendering:geometricPrecision; text-rendering:geometricPrecision; image-rendering:optimizeQuality; fill-rule:evenodd; clip-rule:evenodd"
viewBox="0 0 0.456953 0.113917"
 xmlns:xlink="http://www.w3.org/1999/xlink">
 <defs>
  <style type="text/css">
   <![CDATA[
    .fil0 {fill:#FEFEFE;fill-rule:nonzero}
    .fil1 {fill:#BA2025;fill-rule:nonzero}
    .fil2 {fill:white;fill-rule:nonzero}
   ]]>
  </style>
 </defs>
 <g id="Layer_x0020_1">
  <metadata id="CorelCorpID_0Corel-Layer"/>
  <path class="fil0" d="M0.00470704 0.0962454c-0.00260059,0 -0.00470704,-0.00210646 -0.00470704,-0.00470515l0 -0.0677746c0,-0.00259964 0.00210646,-0.00470515 0.00470704,-0.00470515 0.00259774,0 0.00470515,0.00210551 0.00470515,0.00470515l0 0.0677746c0,0.00259869 -0.00210741,0.00470515 -0.00470515,0.00470515z"/>
  <path class="fil0" d="M0.00470704 0.0167132c-0.0012377,0 -0.00244884,-0.000502666 -0.00332993,-0.00137617 -0.000871605,-0.000871605 -0.00137427,-0.00208464 -0.00137427,-0.00332803 0,-0.00123675 0.000502666,-0.00244789 0.00137427,-0.00332898 0.000881089,-0.000873501 0.00209223,-0.00137617 0.00332993,-0.00137617 0.00123485,0 0.00244599,0.000502666 0.00332708,0.00137617 0.000873501,0.000881089 0.00137617,0.00209223 0.00137617,0.00332898 0,0.00124339 -0.000502666,0.00245643 -0.00137617,0.00332803 -0.000872553,0.000873501 -0.00209223,0.00137617 -0.00332708,0.00137617z"/>
  <path class="fil0" d="M0.0462813 0.0963099l-4.17308e-005 0c-0.00195661,-1.70717e-005 -0.00370645,-0.00123011 -0.00441113,-0.00305868l-0.0241849 -0.0628883c-0.00094653,-0.00245927 0.000279786,-0.00521919 0.00273906,-0.00616478 0.00246212,-0.000945582 0.00522109,0.000282631 0.00616573,0.00273906l0.019843 0.0516001 0.020892 -0.0516741c0.00098921,-0.0024441 0.00376905,-0.00362204 0.0062122,-0.00263568 0.00244125,0.000987313 0.00362204,0.0037681 0.00263473,0.00621125l-0.0254273 0.0628883c-0.000728392,0.00180391 -0.00247824,0.0029828 -0.00442157,0.0029828z"/>
  <path class="fil0" d="M0.310697 0.0324647l-0.0351089 0c-0.00247634,0 -0.00448132,-0.00200782 -0.00448132,-0.00448227 0,-0.00247634 0.00200498,-0.00448132 0.00448132,-0.00448132l0.0351089 0c0.00247445,0 0.00448037,0.00200498 0.00448037,0.00448132 0,0.00247445 -0.00200592,0.00448227 -0.00448037,0.00448227z"/>
  <path class="fil0" d="M0.293143 0.0965489c-0.00247634,0 -0.00448132,-0.00200687 -0.00448132,-0.00448132l0 -0.0772143c0,-0.00247824 0.00200498,-0.00448322 0.00448132,-0.00448322 0.00247445,0 0.00448322,0.00200498 0.00448322,0.00448322l0 0.0772143c0,0.00247445 -0.00200877,0.00448132 -0.00448322,0.00448132z"/>
  <path class="fil0" d="M0.325335 0.0955009c-0.00260154,0 -0.00470894,-0.00210646 -0.00470894,-0.00470704l0 -0.0628124c0,-0.00259679 0.00210741,-0.00470515 0.00470894,-0.00470515 0.00259964,0 0.00470515,0.00210835 0.00470515,0.00470515l0 0.0628124c0,0.00260059 -0.00210551,0.00470704 -0.00470515,0.00470704z"/>
  <path class="fil0" d="M0.325337 0.0195613c-0.00123675,0 -0.00245643,-0.000508357 -0.00332993,-0.00138186 -0.000879192,-0.000873501 -0.00138281,-0.00208559 -0.00138281,-0.00332803 0,-0.00123485 0.000503615,-0.00244979 0.00138281,-0.00332898 0.000873501,-0.000872553 0.00208559,-0.00137522 0.00332993,-0.00137522 0.00123485,0 0.00244599,0.000502666 0.00332613,0.00137522 0.00087445,0.000879192 0.00137712,0.00209413 0.00137712,0.00332898 0,0.00123675 -0.000502666,0.00245453 -0.00137712,0.00332803 -0.00088014,0.000873501 -0.00209128,0.00138186 -0.00332613,0.00138186z"/>
  <path class="fil0" d="M0.366931 0.0963327l-6.63899e-006 0c-0.0144294,-9.48427e-007 -0.029958,-0.0113859 -0.029958,-0.0363836 0,-0.0227746 0.0152355,-0.0363836 0.0299627,-0.0363836 0.014731,0 0.0299665,0.0136384 0.0299665,0.0364594 0,0.00900532 -0.00311179,0.0181026 -0.00853774,0.024956 -0.00570669,0.00721279 -0.0135179,0.0113508 -0.0214269,0.0113517zm-1.89685e-006 -0.0642341c-0.0105342,0 -0.0214297,0.0104175 -0.0214297,0.0278506 0,0.0192369 0.0107609,0.0278496 0.021425,0.0278496l0 0.00426792 4.74214e-006 -0.00426792c0.0112161,0 0.0214307,-0.0132391 0.0214307,-0.0277737 0,-0.017249 -0.0111251,-0.0279264 -0.0214307,-0.0279264z"/>
  <path class="fil0" d="M0.261892 0.0963697c-0.00249436,0 -0.00451926,-0.002023 -0.00451926,-0.00451926l0 -0.063869c0,-0.00249626 0.00202489,-0.00451641 0.00451926,-0.00451641 0.00249816,0 0.0045202,0.00202015 0.0045202,0.00451641l0 0.063869c0,0.00249626 -0.00202205,0.00451926 -0.0045202,0.00451926z"/>
  <path class="fil0" d="M0.235901 0.0963317c-0.0145546,0 -0.029241,-0.0111241 -0.029241,-0.0359805 0,-0.0104725 0.00292305,-0.0194987 0.00845238,-0.0261017 0.00545346,-0.00651095 0.0130551,-0.0100951 0.0214051,-0.0100951 0.0144189,0 0.0298565,0.0145745 0.0298565,0.0362716 0,0.0211604 -0.0160607,0.0359056 -0.030473,0.0359056zm0.000616478 -0.0632136c-0.012302,0 -0.0208939,0.0111971 -0.0208939,0.0272331 0,0.0164125 0.00796015,0.0270178 0.0202774,0.0270178 0.00879192,0 0.0215103,-0.00959429 0.0215103,-0.0269429 0,-0.016092 -0.0110122,-0.0273081 -0.0208939,-0.0273081z"/>
  <path class="fil0" d="M0.181992 0.0959751c-0.00380509,0 -0.0076007,-0.000788143 -0.0112408,-0.00239383 -0.0116543,-0.00514711 -0.0188111,-0.0175099 -0.0186755,-0.0322626 0.000198221,-0.0214819 0.0115016,-0.0330138 0.0220177,-0.0366425 0.0108652,-0.00375103 0.0224986,-0.000395494 0.0296365,0.00854817 0.00152128,0.00190254 0.00121209,0.00467954 -0.000694249,0.00620082 -0.00190254,0.00151748 -0.00467859,0.0012064 -0.00619607,-0.000696146 -0.00478292,-0.00598837 -0.0125828,-0.00822761 -0.0198677,-0.00571427 -0.00993477,0.00342951 -0.015945,0.0140415 -0.0160758,0.0283836 -0.00010243,0.0111753 0.00503899,0.020412 0.0134183,0.0241128 0.00753525,0.00332613 0.0162162,0.00143213 0.0232156,-0.00506839 0.00178494,-0.0016588 0.00457711,-0.00155542 0.00623591,0.000231416 0.0016569,0.00178209 0.00155258,0.00457521 -0.000232365,0.00623306 -0.00642559,0.00596656 -0.013995,0.00906791 -0.0215416,0.00906791z"/>
  <path class="fil0" d="M0.407589 0.096272c-0.00229614,0 -0.00417023,-0.00184279 -0.00420722,-0.00414178 0,-0.000155542 -5.40603e-005,-0.00418541 -5.40603e-005,-0.036816 0,-0.000735979 1.70717e-005,-0.00146247 5.40603e-005,-0.0021738l0 -0.0255924c0,-0.00232365 0.00188358,-0.00420627 0.00420722,-0.00420627 0.00232365,0 0.00420627,0.00188263 0.00420627,0.00420627l0 0.00473075c0.00537853,-0.00579584 0.0126473,-0.00896169 0.0197918,-0.00896169 0.00694344,0 0.0132723,0.00290788 0.0178162,0.00818777 0.00493846,0.00573514 0.00754948,0.0140396 0.00754948,0.0240208l0 0.036541c0,0.0023227 -0.00188358,0.00420533 -0.00420533,0.00420533 -0.00232365,0 -0.00420627,-0.00188263 -0.00420627,-0.00420533l0 -0.036541c0,-0.00793739 -0.00190824,-0.014344 -0.00551226,-0.0185323 -0.00292305,-0.00339537 -0.00698517,-0.00526472 -0.0114418,-0.00526472 -0.00932968,0 -0.0189647,0.00806637 -0.0197918,0.0216744l0 0.0386636c0,0.00230942 -0.00186366,0.00418825 -0.00417687,0.00420533l-2.94012e-005 0z"/>
  <path class="fil1" d="M0.112068 0.0896235c-0.00106508,0 -0.00212922,-0.000404978 -0.00294202,-0.00121019 -0.00247634,-0.00245643 -0.0243205,-0.0243452 -0.0284386,-0.0365287 -0.000256075,-0.000762535 -0.000288322,-0.00158198 -9.19974e-005,-0.00236064 0.00257119,-0.0101586 0.00788333,-0.01918 0.0105721,-0.021534 0.00077771,-0.000680971 0.00175744,-0.00103189 0.00275044,-0.00103189 0.000260817,0 0.000523532,2.27623e-005 0.000783401,7.20805e-005 0.0124462,-0.0228552 0.0156301,-0.0228533 0.0177887,-0.0228533 0.00222691,0 0.00496122,-1.89685e-006 0.018096,0.0227262 0.000312033,-7.39773e-005 0.000630704,-0.000110966 0.000947479,-0.000110966 0.00111914,0 0.0022288,0.000448606 0.00304635,0.00131737 0.00301884,0.00321327 0.00918931,0.0139485 0.00973466,0.0221638 2.08654e-005,0.000331001 3.79371e-006,0.000660105 -5.21635e-005,0.000988261 -0.00196893,0.0113783 -0.0247985,0.0330242 -0.0293567,0.0372495 -0.000800473,0.000742618 -0.00182193,0.00111251 -0.00283769,0.00111251z"/>
  <path class="fil0" d="M0.11249 0.0083528c0.0028965,0 0.0173078,0.0256009 0.0173078,0.0256009 0,0 0.000612684,-0.00214534 0.00173847,-0.0029847 0.00254178,0.00270491 0.00815268,0.0126662 0.00861077,0.0195803 -0.00182762,0.0105598 -0.0280791,0.0348983 -0.0280791,0.0348983 0,0 -0.0235058,-0.0232991 -0.0274228,-0.0348983 0.00241659,-0.00954687 0.00742239,-0.0177982 0.00927277,-0.0194162 0.00130504,0.000667693 0.00149946,0.00341434 0.00149946,0.00341434 0,0 0.0137655,-0.0261946 0.0170726,-0.0261946zm0 -0.0083528c-0.00580817,0 -0.0094966,0.00451262 -0.0169731,0.0172121 -0.00116467,0.00198032 -0.00228666,0.00394641 -0.00329294,0.00574083 -0.00138186,0.000287373 -0.00269733,0.00092282 -0.00380888,0.00189496 -0.00363248,0.00318102 -0.00920354,0.0131281 -0.0118696,0.0236519 -0.000392649,0.00155827 -0.000329104,0.0031981 0.000184943,0.00472222 0.00433052,0.0128208 0.0252983,0.0340353 0.0294563,0.0381562 0.0016256,0.00161233 0.00375293,0.00242133 0.0058812,0.00242133 0.00203817,0 0.00407349,-0.000738825 0.00567823,-0.00222596 0.000277889,-0.000257024 0.00689032,-0.00640093 0.0138309,-0.0139675 0.0136611,-0.014895 0.0161318,-0.0217607 0.0168023,-0.0256331 0.000110966,-0.000652518 0.000145109,-0.00131547 0.000101482,-0.00197557 -0.000613632,-0.0093164 -0.00739489,-0.0210617 -0.0108585,-0.0247454 -0.00128607,-0.00137048 -0.00293538,-0.00221742 -0.004671,-0.00251333 -0.00109733,-0.00185418 -0.00233787,-0.00391131 -0.00362015,-0.00598363 -0.0024147,-0.00390088 -0.00449175,-0.00704112 -0.00617711,-0.00933632 -0.00274949,-0.00375482 -0.00583662,-0.0074186 -0.0106641,-0.0074186z"/>
  <path class="fil2" d="M0.112378 0.0695112l-1.61233e-005 0c-0.000472317,-3.79371e-006 -0.000914284,-0.000234262 -0.00118459,-0.00062122l-0.0124083 -0.017488c-0.000471368,-0.000666744 -0.000313929,-0.00158387 0.000348073,-0.00205524 0.000662951,-0.000469471 0.00158577,-0.000314878 0.00205429,0.000348073l0.0112341 0.0158359 0.0114229 -0.0153503c0.00048844,-0.000650621 0.00141126,-0.000788143 0.00206188,-0.000303497 0.000654415,0.000487492 0.00079004,0.00141031 0.000303497,0.00206378l-0.012634 0.0169778c-0.000277889,0.00037368 -0.000717959,0.000592767 -0.00118174,0.000592767z"/>
  <path class="fil2" d="M0.112399 0.0548826l-1.89685e-006 0c-0.000513099,0 -0.000985416,-0.000264611 -0.00125477,-0.000698991l-0.0069017 -0.011182c-0.000428689,-0.000694249 -0.000213396,-0.00160095 0.000477059,-0.00202963 0.000697094,-0.000426792 0.00160474,-0.000209602 0.00202963,0.000480853l0.00565642 0.00916181 0.00571333 -0.00916655c0.000429638,-0.000692352 0.00133823,-0.000902903 0.00202963,-0.000471368 0.000690455,0.000428689 0.000901954,0.00133918 0.000469471,0.00202963l-0.0069662 0.011182c-0.000269353,0.000432483 -0.000742618,0.000694249 -0.00125098,0.000694249z"/>
  <path class="fil2" d="M0.112378 0.0695112c-0.000814699,0 -0.0014748,-0.000658208 -0.0014748,-0.00147291l0 -0.0383203c0,-0.000814699 0.000660105,-0.00147386 0.0014748,-0.00147386 0.000812802,0 0.00147291,0.000659157 0.00147291,0.00147386l0 0.0383203c0,0.000814699 -0.000660105,0.00147291 -0.00147291,0.00147291z"/>
  <path class="fil0" d="M0.0925115 0.113917c-0.00111535,0 -0.00222501,-0.00044007 -0.00305204,-0.00131262 -0.0015981,-0.00168346 -0.00152697,-0.00434664 0.000159336,-0.0059419l0.0216716 -0.0205477c0.0016863,-0.0015981 0.00434664,-0.00152697 0.00594379,0.00015649 0.0015981,0.0016863 0.00152507,0.00434664 -0.000159336,0.00594664l-0.0216716 0.0205458c-0.000813751,0.00077202 -0.00185512,0.00115329 -0.00289175,0.00115329z"/>
 </g>
</svg>
